<?xml version="1.0" encoding="utf-8"?>
<svg xmlns="http://www.w3.org/2000/svg"
	xmlns:xlink="http://www.w3.org/1999/xlink"
	width="35px" height="34px" viewBox="0 0 35 34">
<path fillRule="evenodd" d="M 13.38 4.24C 18.03 4.24 21.81 8.04 21.81 12.71 21.81 14.47 21.27 16.16 20.24 17.61 20.24 17.61 19.42 18.78 19.42 18.78 19.42 18.78 18.25 19.61 18.25 19.61 16.81 20.64 15.13 21.18 13.38 21.18 8.73 21.18 4.95 17.38 4.95 12.71 4.95 8.04 8.73 4.24 13.38 4.24M 13.38 0C 6.39 0 0.73 5.69 0.73 12.71 0.73 19.73 6.39 25.42 13.38 25.42 16.11 25.42 18.63 24.54 20.69 23.06 20.69 23.06 30.85 33.27 30.85 33.27 31.26 33.68 31.8 33.89 32.34 33.89 32.88 33.89 33.42 33.68 33.83 33.27 34.66 32.44 34.66 31.1 33.83 30.27 33.83 30.27 23.68 20.06 23.68 20.06 25.15 17.99 26.02 15.45 26.02 12.71 26.02 5.69 20.36 0 13.38 0 13.38 0 13.38 0 13.38 0Z" fill="rgb(240,250,255)"/></svg>