<?xml version="1.0" encoding="utf-8"?>
<svg xmlns="http://www.w3.org/2000/svg"
	xmlns:xlink="http://www.w3.org/1999/xlink"
	width="30px" height="34px" viewBox="0 0 30 34">
<path fillRule="evenodd" d="M 15.2 4.34C 21.02 4.34 25.76 9.1 25.76 14.93 25.76 20.77 21.02 25.52 15.23 25.53 15.23 25.53 15.1 25.52 15.1 25.52 14.98 25.51 14.87 25.5 14.75 25.5 14.75 25.5 14.04 25.47 14.04 25.47 14.04 25.47 13.36 25.67 13.36 25.67 13.36 25.67 6.27 27.79 6.27 27.79 6.27 27.79 7.13 24.4 7.13 24.4 7.13 24.4 7.6 22.54 7.6 22.54 7.6 22.54 6.51 20.95 6.51 20.95 5.28 19.18 4.63 17.09 4.63 14.93 4.63 9.1 9.37 4.34 15.2 4.34M 15.2 0.11C 7.02 0.11 0.39 6.75 0.39 14.93 0.39 18.07 1.37 20.97 3.02 23.36 3.02 23.36 0.33 34 0.33 34 0.33 34 14.57 29.73 14.57 29.73 14.78 29.74 14.99 29.76 15.2 29.76 23.37 29.76 30 23.12 30 14.93 30 6.75 23.37 0.11 15.2 0.11 15.2 0.11 15.2 0.11 15.2 0.11Z" fill="rgb(255,255,255)"/></svg>