<?xml version="1.0" encoding="utf-8"?>
<svg xmlns="http://www.w3.org/2000/svg"
	xmlns:xlink="http://www.w3.org/1999/xlink"
	width="34px" height="34px" viewBox="0 0 34 34">
<path fillRule="evenodd" d="M 33.31 9.59C 33.31 9.59 18.03 25.42 18.03 25.42 18.03 25.42 8.49 25.42 8.49 25.42 8.49 25.42 8.49 15.89 8.49 15.89 8.49 15.89 24.34 0.62 24.34 0.62 24.75 0.21 25.29 0 25.83 0 26.37 0 26.91 0.21 27.33 0.62 27.33 0.62 33.31 6.6 33.31 6.6 34.13 7.42 34.13 8.76 33.31 9.59ZM 25.8 5.09C 25.8 5.09 12.73 17.69 12.73 17.69 12.73 17.69 12.73 21.18 12.73 21.18 12.73 21.18 16.23 21.18 16.23 21.18 16.23 21.18 28.83 8.12 28.83 8.12 28.83 8.12 25.8 5.09 25.8 5.09ZM 10.61 4.24C 10.61 4.24 5.31 4.24 5.31 4.24 4.72 4.24 4.25 4.71 4.25 5.3 4.25 5.3 4.25 28.6 4.25 28.6 4.25 29.18 4.72 29.65 5.31 29.65 5.31 29.65 28.63 29.65 28.63 29.65 29.21 29.65 29.69 29.18 29.69 28.6 29.69 28.6 29.69 23.3 29.69 23.3 29.69 22.13 30.64 21.18 31.81 21.18 32.98 21.18 33.93 22.13 33.93 23.3 33.93 23.3 33.93 31.77 33.93 31.77 33.93 32.94 32.98 33.89 31.81 33.89 31.81 33.89 2.13 33.89 2.13 33.89 0.96 33.89 0.01 32.94 0.01 31.77 0.01 31.77 0.01 2.12 0.01 2.12 0.01 0.95 0.96 0 2.13 0 2.13 0 10.61 0 10.61 0 11.78 0 12.73 0.95 12.73 2.12 12.73 3.29 11.78 4.24 10.61 4.24Z" fill="rgb(255,255,255)"/></svg>